HIERARCHY
ROOT Hips
{
	OFFSET 0.000000 0.000000 0.000000
	CHANNELS 6 Xposition Yposition Zposition Yrotation Xrotation Zrotation
	JOINT Chest
	{
		OFFSET 0.000000 -0.009281 11.569106
		CHANNELS 3 Yrotation Xrotation Zrotation
		JOINT Chest2
		{
			OFFSET -0.000000 0.016865 9.269641
			CHANNELS 3 Yrotation Xrotation Zrotation
			JOINT Chest3
			{
				OFFSET -0.000000 0.000001 8.374491
				CHANNELS 3 Yrotation Xrotation Zrotation
				JOINT Chest4
				{
					OFFSET -0.000000 0.000001 8.374493
					CHANNELS 3 Yrotation Xrotation Zrotation
					JOINT Neck
					{
						OFFSET -0.000000 0.000002 12.152554
						CHANNELS 3 Yrotation Xrotation Zrotation
						JOINT Head
						{
							OFFSET -0.000000 0.040101 7.802319
							CHANNELS 3 Yrotation Xrotation Zrotation
							End Site
							{
								OFFSET -0.000000 0.020947 14.853096
							}
						}
					}
					JOINT RightCollar
					{
						OFFSET 2.894404 0.000001 6.791374
						CHANNELS 3 Yrotation Xrotation Zrotation
						JOINT RightShoulder
						{
							OFFSET 13.574684 0.000001 0.000000
							CHANNELS 3 Yrotation Xrotation Zrotation
							JOINT RightElbow
							{
								OFFSET 23.923903 0.000002 0.000000
								CHANNELS 3 Yrotation Xrotation Zrotation
								JOINT RightWrist
								{
									OFFSET 19.846718 0.012767 0.000000
									CHANNELS 3 Yrotation Xrotation Zrotation
									End Site
									{
										OFFSET 14.973145 0.000001 0.000000
									}
								}
							}
						}
					}
					JOINT LeftCollar
					{
						OFFSET -2.894404 0.000001 6.791374
						CHANNELS 3 Yrotation Xrotation Zrotation
						JOINT LeftShoulder
						{
							OFFSET -13.574684 -0.000001 0.000000
							CHANNELS 3 Yrotation Xrotation Zrotation
							JOINT LeftElbow
							{
								OFFSET -23.923903 -0.000002 0.000000
								CHANNELS 3 Yrotation Xrotation Zrotation
								JOINT LeftWrist
								{
									OFFSET -19.846718 0.012763 0.000000
									CHANNELS 3 Yrotation Xrotation Zrotation
									End Site
									{
										OFFSET -14.973145 -0.000001 0.000000
									}
								}
							}
						}
					}
				}
			}
		}
	}
	JOINT RightHip
	{
		OFFSET 9.469263 0.004643 0.045487
		CHANNELS 3 Yrotation Xrotation Zrotation
		JOINT RightKnee
		{
			OFFSET 0.000000 0.002661 -40.478676
			CHANNELS 3 Yrotation Xrotation Zrotation
			JOINT RightAnkle
			{
				OFFSET 0.000000 0.049106 -35.224068
				CHANNELS 3 Yrotation Xrotation Zrotation
				JOINT RightToe
				{
					OFFSET -0.000001 12.539529 -6.151390
					CHANNELS 3 Yrotation Xrotation Zrotation
					End Site
					{
						OFFSET -0.000001 5.044994 -1.291870
					}
				}
			}
		}
	}
	JOINT LeftHip
	{
		OFFSET -9.469263 0.004641 0.045487
		CHANNELS 3 Yrotation Xrotation Zrotation
		JOINT LeftKnee
		{
			OFFSET 0.000000 0.002661 -40.478676
			CHANNELS 3 Yrotation Xrotation Zrotation
			JOINT LeftAnkle
			{
				OFFSET 0.000000 0.049106 -35.224068
				CHANNELS 3 Yrotation Xrotation Zrotation
				JOINT LeftToe
				{
					OFFSET -0.000001 12.539529 -6.151390
					CHANNELS 3 Yrotation Xrotation Zrotation
					End Site
					{
						OFFSET -0.000001 5.044994 -1.291870
					}
				}
			}
		}
	}
}
MOTION
Frames: 7
Frame Time: 0.016667
11.488751 6.431854 82.606598 -7.700313 -2.554332 -106.649039 -0.499087 -3.492138 0.825895 -0.240802 -1.585526 0.285368 -0.240802 -1.585526 0.285369 -0.179850 -1.189258 0.213386 0.948396 -17.717330 -2.805870 0.799044 3.270818 -4.852671 3.915160 18.648558 -0.180434 71.619601 41.949567 69.220443 60.722827 33.625728 84.724747 -62.364169 42.245471 -7.273719 -4.495913 12.610587 -5.509684 -68.350133 44.975676 -66.854083 -54.260095 31.288837 -79.965273 67.058094 32.371507 12.371805 -1.773461 -5.271259 -2.758263 4.552047 -13.490812 -7.384385 -2.955753 9.848913 -0.448914 0.260391 0.124354 0.144641 -0.940821 -6.572592 -0.515312 0.879067 -11.003403 -0.141433 1.515052 9.961396 2.875223 -0.438787 -0.225110 -0.032150 
11.555079 6.416112 82.582970 -7.659979 -2.550116 -106.675192 -0.493647 -3.371969 0.823464 -0.242010 -1.541110 0.274132 -0.242009 -1.541110 0.274128 -0.180804 -1.155941 0.204976 0.922233 -17.765500 -2.799223 0.754569 3.180682 -4.848603 3.929996 18.206008 -0.236798 72.190899 42.010291 69.253139 59.394956 32.175935 85.804306 -64.347540 41.261285 -5.458167 -4.518931 12.438883 -5.421332 -68.481567 44.940524 -66.542558 -52.014787 30.190375 -79.990647 68.088824 31.914250 9.452972 -1.805700 -5.106825 -2.709353 4.625324 -13.859032 -7.383041 -3.033935 10.048730 -0.517825 0.277151 0.145243 0.159927 -0.952730 -6.462815 -0.579258 0.875434 -11.280950 -0.094237 1.589288 10.197869 2.940409 -0.402710 -0.231812 -0.033511 
11.626406 6.396023 82.556931 -7.611611 -2.539861 -106.666217 -0.501388 -3.252565 0.801030 -0.244403 -1.489237 0.262512 -0.244403 -1.489237 0.262510 -0.182651 -1.117033 0.196275 0.901032 -17.804338 -2.793578 0.718621 3.108004 -4.844809 3.939330 17.840845 -0.335803 72.639998 42.042488 69.221795 57.333277 30.842109 86.415881 -65.727621 40.445559 -3.395454 -4.555180 12.296849 -5.361386 -68.584983 44.921956 -66.236156 -49.272793 29.029079 -79.746748 68.743552 31.625753 6.405124 -1.831010 -4.944451 -2.722461 4.684038 -14.216756 -7.375527 -3.099554 10.252804 -0.546073 0.284055 0.157060 0.156221 -0.956949 -6.357280 -0.624272 0.859907 -11.541885 -0.045897 1.667750 10.426328 2.953010 -0.373124 -0.232908 -0.034315 
11.706917 6.372227 82.530838 -7.560190 -2.532058 -106.653110 -0.507806 -3.154567 0.784069 -0.244371 -1.446350 0.251875 -0.244371 -1.446349 0.251878 -0.182673 -1.084863 0.188318 0.876056 -17.803235 -2.790228 0.673700 3.109304 -4.847069 3.965074 17.867339 -0.399636 72.624869 41.954065 68.657786 54.832048 29.543809 86.880122 -67.017154 39.598107 -1.285345 -4.650965 12.271272 -5.452784 -68.498765 45.011189 -65.785978 -46.364844 27.807917 -79.490377 69.284947 31.443715 3.590244 -1.845385 -4.801065 -2.754495 4.723801 -14.547027 -7.348040 -3.157428 10.449552 -0.573902 0.288256 0.164654 0.150013 -0.959215 -6.262532 -0.637180 0.870858 -11.773966 0.011395 1.725057 10.652033 2.935326 -0.352887 -0.245751 -0.033455 
11.799872 6.339847 82.510124 -7.512724 -2.534234 -106.640351 -0.506546 -3.095843 0.774901 -0.243162 -1.420038 0.246350 -0.243163 -1.420038 0.246348 -0.181790 -1.065127 0.184187 0.843552 -17.749336 -2.791677 0.611610 3.208261 -4.861521 4.003080 18.125601 -0.429134 72.288414 41.759664 67.817133 51.928152 28.371697 87.241112 -67.927372 38.871556 0.987074 -4.764354 12.375821 -5.597075 -68.211822 45.106429 -65.224666 -43.684633 26.597481 -79.381784 69.463201 31.336262 0.771246 -1.835671 -4.715741 -2.797609 4.739841 -14.790988 -7.287055 -3.217190 10.610806 -0.624897 0.291962 0.169141 0.148195 -0.950136 -6.212168 -0.640850 0.881146 -11.960793 0.149921 1.755071 10.866931 2.834542 -0.329323 -0.251990 -0.033034 
11.910512 6.297303 82.499390 -7.457567 -2.529860 -106.632387 -0.487687 -3.060237 0.754950 -0.238216 -1.404218 0.238406 -0.238216 -1.404218 0.238408 -0.178105 -1.053256 0.178249 0.780475 -17.652750 -2.779992 0.496184 3.385701 -4.862863 4.040126 18.449236 -0.401345 71.661990 41.441493 66.857805 48.584215 27.471810 87.513663 -68.342900 38.272272 3.370170 -4.847656 12.545248 -5.651042 -67.789102 45.097690 -64.567875 -41.194196 25.483120 -79.442729 69.285255 31.049924 -2.138724 -1.826193 -4.691466 -2.858535 4.754060 -14.917972 -7.210240 -3.280671 10.725690 -0.667877 0.290332 0.173000 0.151294 -0.940194 -6.199055 -0.649503 0.900795 -12.069040 0.318113 1.733504 11.026974 2.710577 -0.287628 -0.235329 -0.032820 
12.035790 6.246431 82.499741 -7.401453 -2.502915 -106.604985 -0.479706 -3.041609 0.715887 -0.236744 -1.390319 0.232689 -0.236745 -1.390320 0.232691 -0.177020 -1.042830 0.173971 0.708440 -17.532488 -2.764589 0.364622 3.606819 -4.860979 4.069293 18.832157 -0.414416 70.780977 40.977119 65.868671 44.705132 26.972072 87.491520 -68.403375 37.569811 5.910665 -4.843069 12.614880 -5.644841 -67.376941 45.008269 -64.032914 -38.616141 24.590742 -79.476921 68.855328 30.500749 -5.203934 -1.828522 -4.716222 -2.933900 4.765464 -14.947432 -7.153180 -3.331504 10.801971 -0.676209 0.275127 0.177432 0.138700 -0.941467 -6.238428 -0.694413 0.915059 -12.067507 0.480182 1.659525 11.095341 2.588704 -0.215828 -0.179420 -0.030504 
